<?xml version="1.0" encoding="utf-8"?>
<!-- Generator: Adobe Illustrator 28.1.0, SVG Export Plug-In . SVG Version: 6.00 Build 0)  -->
<svg version="1.1" id="Camada_1" xmlns="http://www.w3.org/2000/svg" xmlns:xlink="http://www.w3.org/1999/xlink" x="0px" y="0px"
	 viewBox="0 0 1080 1080" style="enable-background:new 0 0 1080 1080;" xml:space="preserve">
<style type="text/css">
	.st0{display:none;}
	.st1{display:inline;}
	.st2{fill:#FF8C00;}
	.st3{fill:#424093;}
	.st4{fill:#FFFFFF;}
	.st5{fill:#323972;}
	.st6{display:inline;fill:#FFFFFF;}
	.st7{fill:none;stroke:#1A2E35;stroke-width:13;stroke-linecap:round;stroke-linejoin:round;stroke-miterlimit:10;}
	.st8{fill:none;stroke:#1A2E35;stroke-width:13;stroke-linejoin:round;stroke-miterlimit:10;}
	.st9{fill:none;stroke:#FFFFFF;stroke-width:13;stroke-linecap:round;stroke-linejoin:round;stroke-miterlimit:10;}
</style>
<g class="st0">
	<g class="st1">
		<path class="st2" d="M-796.08,1024.5c0,0-43.78-123.83-9.97-164.22c33.86-40.4,81.91-62.6,81.91-62.6l79.05,42.9
			c0,0,7.58,52.39-7.88,102.78C-668.39,993.72-796.08,1024.5-796.08,1024.5z"/>
	</g>
	<g class="st1">
		<path class="st3" d="M-580.69,830.53L-607,879.01c-31.36-9.19-61.49-21.65-89.98-37.11c-28.47-15.45-55.3-33.91-80.13-55.21
			l26.31-48.48C-699.12,777.58-641.86,808.65-580.69,830.53z"/>
	</g>
	<g class="st1">
		<path class="st3" d="M-754.13,619.88c-32.02-0.15-63.9,9.36-91.55,27.64l-21.76,14.39c-7.1,4.68-15.82-1.94-13.31-10.15
			l32.37-106.51c13.53-44.44,47.4-79.94,90.58-94.91l98.15-33.99L-754.13,619.88z"/>
	</g>
	<g class="st1">
		<path class="st3" d="M-247.58,338.55c-96.02-38.99-187.19-88.47-272.24-147.75c30.2-28.88,64.14-53.36,100.83-72.38l113.06-58.52
			c23.35-12.08,48.96,1.81,51.55,27.98l12.54,126.69C-237.79,255.7-239.79,297.51-247.58,338.55z"/>
	</g>
	<g class="st1">
		<path class="st3" d="M-365.73,807.19l-71.67,85.18c-5.52,6.58-15.82,2.88-15.76-5.62l0.21-26.08
			c0.26-33.14-9.14-65.06-26.68-91.81l119.14-190.1l24.98,100.77C-324.53,723.88-335.83,771.63-365.73,807.19z"/>
	</g>
	<g class="st1">
		<path d="M-528.65,855.8c-0.84,0-1.69-0.12-2.52-0.37l-21.18-6.41c-10.2-3.05-20.45-6.41-31.26-10.25
			c-62.06-22.19-120.08-53.68-172.49-93.61c-9.22-7.07-17.62-13.83-25.7-20.69l-16.82-14.2c-3.01-2.54-3.95-6.79-2.29-10.37
			l172.82-372.27c25.17-54.19,59.57-102.36,102.23-143.16c3.49-3.34,9.03-3.21,12.38,0.27c3.34,3.5,3.22,9.04-0.28,12.38
			c-41.07,39.28-74.2,85.68-98.45,137.88l-170.01,366.21l11.7,9.86c7.9,6.71,16.09,13.3,25.05,20.17
			c50.95,38.82,107.39,69.45,167.73,91.03c10.51,3.73,20.49,7,30.49,9.99l14.73,4.47l214.38-342.12
			c30.56-48.78,51.4-101.83,61.96-157.69c0.9-4.75,5.52-7.87,10.23-6.98c4.75,0.9,7.88,5.48,6.98,10.23
			c-10.96,58.01-32.61,113.1-64.33,163.73L-521.23,851.7C-522.86,854.3-525.69,855.8-528.65,855.8z"/>
	</g>
	<g class="st1">
		<g>
			<path class="st2" d="M-409.55,327.36c-55.98-30.38-125.93-9.65-156.31,46.33c-30.36,55.95-9.65,125.93,46.33,156.31
				c55.95,30.36,125.91,9.6,156.28-46.35C-332.87,427.67-353.6,357.73-409.55,327.36z M-501.82,497.37
				c-37.94-20.59-51.98-68.06-31.41-105.96c20.59-37.94,68.02-52,105.96-31.41c37.91,20.57,52,68.02,31.41,105.96
				C-416.43,503.87-463.91,517.94-501.82,497.37z"/>
		</g>
	</g>
	<g class="st1">
		<path d="M-464.69,515.58c-13.99,0-28.17-3.38-41.3-10.51c-42.11-22.86-57.78-75.72-34.93-117.84
			c22.86-42.11,75.72-57.78,117.84-34.92c42.11,22.86,57.78,75.72,34.93,117.83c0,0.01,0,0.01,0,0.01
			C-403.89,499.12-433.82,515.58-464.69,515.58z M-464.42,359.3c-24.65,0-48.55,13.14-61.11,36.29
			c-18.25,33.63-5.74,75.83,27.89,94.09c33.64,18.25,75.84,5.74,94.09-27.89c18.25-33.63,5.74-75.84-27.89-94.09
			C-441.93,362-453.25,359.3-464.42,359.3z M-395.85,465.96h0.07H-395.85z"/>
	</g>
	<g class="st1">
		<path d="M-837.37,830.38c-3.85,0-7.39-2.56-8.44-6.46c-1.27-4.66,1.49-9.47,6.16-10.74l56.9-15.43c4.65-1.29,9.48,1.49,10.74,6.16
			c1.26,4.66-1.49,9.47-6.16,10.74l-56.9,15.43C-835.84,830.29-836.61,830.38-837.37,830.38z"/>
	</g>
	<g class="st1">
		<path d="M-790.79,798.02c-0.21,0-0.41-0.01-0.63-0.02l-35.28-2.47c-4.83-0.34-8.46-4.52-8.13-9.34c0.34-4.82,4.5-8.41,9.34-8.13
			l35.3,2.47c4.82,0.34,8.46,4.53,8.12,9.35C-782.39,794.49-786.24,798.02-790.79,798.02z"/>
	</g>
	<g class="st1">
		<path d="M-613.46,948.54c-4.37,0-8.15-3.26-8.68-7.71l-5.73-47.52c-0.58-4.79,2.85-9.16,7.64-9.74c4.77-0.57,9.16,2.85,9.74,7.65
			l5.73,47.52c0.58,4.8-2.85,9.16-7.65,9.74C-612.75,948.52-613.11,948.54-613.46,948.54z"/>
	</g>
	<g class="st1">
		<path d="M-589.94,924.9c-2.55,0-5.07-1.11-6.8-3.24l-18.93-23.32c-3.05-3.75-2.47-9.27,1.28-12.31c3.75-3.04,9.28-2.46,12.32,1.29
			l18.93,23.31c3.05,3.75,2.48,9.27-1.28,12.32C-586.05,924.26-588,924.9-589.94,924.9z"/>
	</g>
	<g class="st1">
		<path d="M-753.54,686.77c-1.3,0-2.62-0.29-3.87-0.9c-4.34-2.14-6.11-7.39-3.98-11.72l80.45-163.01c2.14-4.33,7.39-6.12,11.73-3.97
			c4.34,2.14,6.11,7.39,3.98,11.73l-80.45,163C-747.2,684.98-750.31,686.77-753.54,686.77z"/>
	</g>
	<g class="st1">
		<path d="M-829.28,547.61c-1.17,0-2.35-0.23-3.49-0.72c-4.44-1.93-6.47-7.09-4.54-11.52c19-43.73,61.83-75.9,109.12-81.97
			c4.85-0.61,9.18,2.78,9.8,7.57c0.62,4.79-2.77,9.19-7.57,9.8c-41.3,5.29-78.7,33.39-95.29,71.57
			C-822.68,545.64-825.91,547.61-829.28,547.61z"/>
	</g>
	<g class="st1">
		<path d="M-366.35,804.46c-1.55,0-3.11-0.41-4.53-1.27c-4.13-2.51-5.45-7.89-2.95-12.02c22.07-36.42,23.98-84.52,4.89-122.57
			c-2.17-4.32-0.42-9.58,3.9-11.75c4.32-2.15,9.58-0.42,11.75,3.9c21.73,43.3,19.55,98.06-5.56,139.49
			C-360.51,802.96-363.4,804.46-366.35,804.46z"/>
	</g>
	<g class="st1">
		<path d="M-481.38,197.9c-2.17,0-4.31-1.01-5.68-2.89c-2.27-3.13-1.57-7.51,1.56-9.78c49.28-35.71,102.91-65.27,159.41-87.85
			c3.6-1.43,7.67,0.32,9.1,3.91c1.44,3.59-0.31,7.67-3.91,9.1c-55.42,22.15-108.04,51.15-156.39,86.18
			C-478.52,197.47-479.96,197.9-481.38,197.9z"/>
	</g>
</g>
<g>
	<path class="st2" d="M545.46,289.06c0.67-1.13-8.02-5.85-9.04-6.63l0.01-0.08c-4.96-3.6-9.6-7-13.93-10.21
		c-0.86-0.67-1.73-1.26-2.52-1.85c-5.66-4.26-7.32-4.51-2.12-1.64c0.4,0.21,0.71,0.49,1.03,0.69c0.01-0.09,0.01-0.09,0.01-0.09
		l-0.08-0.01l0.01-0.08c-0.4-0.21-0.79-0.58-1.1-0.78c-1.64-1.34-5.09-3.95-5.09-4.04c-0.08-0.01-0.08-0.01-0.16-0.1
		c0,0-0.08-0.01-0.08-0.09c-0.4-0.21-0.87-0.59-1.25-0.97c-0.48-0.3-0.94-0.77-1.41-1.06c-0.7-0.57-1.41-1.15-2.11-1.72l-0.08-0.01
		c0,0-0.08-0.01-0.08-0.09c-0.08-0.01-0.08-0.01-0.08-0.01c-12.59-9.23-25.87-10.44-38.94-6.99c-21.98,5.87-43.05,24.81-57.8,40.4
		c-20.79,23.1-46.53,60.55-22.67,90.01c3.5,3.88,6.79,8.16,10.28,12.13c0.08,0.09,22.98,25.99,23.06,26.08
		C421.32,421.93,504.13,358.15,545.46,289.06z"/>
	<path class="st2" d="M577.22,608.98c1-0.28,2-0.56,3.06-0.84c0.11-0.06,0.22-0.06,0.33-0.11c0.5-0.11,0.94-0.28,1.45-0.45
		c0.5-0.11,1-0.28,1.44-0.5c0.89-0.28,1.78-0.56,2.67-0.95c0.56-0.17,1.11-0.39,1.67-0.62c8.89-3.25,17.39-7.99,25.72-13.18
		c0.22-0.11,0.44-0.28,0.67-0.45c1.28-0.78,2.55-1.56,3.83-2.4c1.89-1.23,3.83-2.57,5.77-3.96c0.39-0.28,0.78-0.56,1.22-0.95
		c0.56-0.34,1.11-0.78,1.72-1.23l0.06,0c1-0.73,2-1.45,3.05-2.23c1.39-1,2.83-2.12,4.22-3.18c0.44-0.33,0.89-0.67,1.39-1.06
		c1.22-0.95,2.5-1.9,3.72-2.96c20.43-15.95,40.96-35.85,58.26-56.86c1.44-1.67,2.83-3.34,4.16-5.01c1.44-1.67,2.72-3.4,4.05-5.07
		c1.11-1.39,2.16-2.79,3.16-4.18c21.35-28.13,36.68-57.98,35.85-83.22c-0.06-0.56-0.17-1.17-0.34-1.72
		c-0.11-0.44-0.22-0.83-0.34-1.22c-0.06-0.22-0.11-0.39-0.17-0.61c-0.17-0.56-0.39-1.11-0.67-1.61c-0.22-0.56-0.5-1.06-0.78-1.56
		c39.69,63.53,74.1,108.44,96.8,135.86c0.11,0.11,0.17,0.22,0.28,0.33c0.95,1.17,1.73,2.44,2.34,3.83c0.61,1.44,1.06,3,1.29,4.72
		c0.11,0.56,0.17,1.17,0.17,1.72c0.12,1.72,0.06,3.61-0.15,5.56c0,0.17-0.05,0.33-0.05,0.5c-0.11,1.22-0.33,2.56-0.66,3.89
		c-0.06,0.22-0.11,0.45-0.17,0.72c-0.17,0.78-0.39,1.56-0.61,2.39c-0.5,2-1.21,4.12-2.04,6.23c-0.28,0.83-0.61,1.61-0.88,2.39
		l-0.06,0.06c-0.33,0.83-0.66,1.67-1.05,2.51c-0.39,0.78-0.72,1.56-1.05,2.34c-0.06,0.06-0.11,0.11-0.11,0.17
		c-1.49,3.23-3.21,6.51-5.09,9.86c-0.66,1.11-1.33,2.23-1.99,3.34c-0.55,0.95-1.16,1.89-1.77,2.9c-1.44,2.23-2.88,4.46-4.43,6.74
		c-0.78,1.17-1.61,2.4-2.49,3.62c-1.39,1.95-2.77,3.9-4.27,5.85c-0.89,1.17-1.77,2.4-2.72,3.57c-1.39,1.78-2.77,3.57-4.21,5.35
		c-21.74,26.47-50.15,52.11-73.76,65.35c-1.39,0.78-2.78,1.51-4.11,2.23c-1.17,0.56-2.33,1.17-3.5,1.68
		c-12.78,5.65-23.79,6.9-31.03,1.52c-0.95-0.67-1.95-1.39-2.95-2.16c-5.12-3.77-10.64-7.76-16.54-11.97l0-0.06
		c-1.23-0.89-2.51-1.77-3.79-2.66c-4.79-3.33-9.8-6.82-15.15-10.42c-1.89-1.33-3.84-2.66-5.85-3.99
		c-6.02-3.99-12.42-8.2-19.16-12.52c-3.17-2.05-6.41-4.1-9.75-6.26c-3.79-2.33-7.63-4.77-11.53-7.15
		c-3.73-2.33-7.52-4.71-11.47-7.04c-13.31-8.03-27.79-16.51-43.49-25.37c0.78,0.33,1.56,0.66,2.34,0.88c0.06,0,0.06,0,0.11,0
		c0.22,0.11,0.45,0.22,0.67,0.28c0.39,0.11,0.83,0.17,1.28,0.22c0.17,0.06,0.39,0.05,0.61,0.11c0.61,0.17,1.22,0.22,1.89,0.27
		c4.28,0.38,8.68-0.3,12.84-1.25C577.17,608.98,577.22,608.98,577.22,608.98z"/>
	<g>
		<g>
			<path class="st4" d="M652.76,725.92c-1.07,0-2.12-0.29-3.04-0.85c-1.34-0.81-2.28-2.1-2.65-3.62c-0.37-1.52-0.13-3.1,0.68-4.44
				c2.95-4.86,8.12-12.03,13.11-18.96l0.11-0.16c4.3-5.95,10.18-14.1,11.27-16.43c0.96-2.06,3.04-3.39,5.32-3.39
				c0.86,0,1.69,0.19,2.48,0.55c1.42,0.66,2.5,1.84,3.03,3.31c0.54,1.47,0.46,3.06-0.2,4.48c-1.44,3.09-5.64,8.99-12.38,18.33
				c-4.91,6.81-9.99,13.85-12.72,18.35C656.7,724.87,654.82,725.92,652.76,725.92z"/>
			<path class="st4" d="M677.56,679.58c0.62,0,1.25,0.13,1.84,0.41c2.18,1.02,3.13,3.61,2.11,5.8c-1.38,2.96-5.54,8.81-12.24,18.09
				c-4.93,6.83-10.02,13.9-12.78,18.44c-0.82,1.35-2.26,2.1-3.73,2.1c-0.77,0-1.55-0.2-2.26-0.63c-2.06-1.25-2.72-3.93-1.47-5.99
				c2.94-4.84,8.14-12.05,13.16-19.02c4.82-6.68,10.28-14.25,11.41-16.68C674.34,680.51,675.92,679.58,677.56,679.58 M677.56,676.58
				L677.56,676.58c-2.85,0-5.48,1.67-6.68,4.26c-1.02,2.19-6.86,10.28-11.12,16.18l-0.11,0.15c-5.02,6.96-10.2,14.16-13.18,19.07
				c-1.02,1.68-1.33,3.66-0.86,5.57c0.47,1.91,1.65,3.53,3.33,4.54c1.15,0.7,2.47,1.07,3.81,1.07c2.6,0,4.95-1.32,6.3-3.54
				c2.71-4.46,7.76-11.47,12.65-18.25c7.42-10.29,11.08-15.48,12.52-18.58c0.83-1.78,0.92-3.78,0.25-5.63
				c-0.67-1.85-2.02-3.32-3.81-4.15C679.69,676.81,678.64,676.58,677.56,676.58L677.56,676.58z"/>
		</g>
	</g>
	<g>
		<g>
			<path class="st4" d="M582.73,665.22c-1.81,0-3.49-0.82-4.61-2.24c-0.97-1.23-1.4-2.76-1.22-4.32c0.18-1.56,0.96-2.95,2.2-3.91
				c5.32-4.19,11.42-10.21,16.27-22.99c0.88-2.3,3.03-3.78,5.49-3.78c0.71,0,1.41,0.13,2.07,0.38c3.03,1.15,4.55,4.55,3.41,7.57
				c-5.91,15.55-13.79,23.15-19.98,28.03C585.33,664.77,584.04,665.22,582.73,665.22z"/>
			<path class="st4" d="M600.86,629.48c0.51,0,1.04,0.09,1.55,0.28c2.25,0.86,3.38,3.38,2.53,5.63
				c-5.78,15.2-13.46,22.62-19.51,27.39c-0.8,0.63-1.75,0.94-2.7,0.94c-1.29,0-2.57-0.57-3.43-1.66c-1.49-1.89-1.17-4.64,0.73-6.13
				c5.48-4.32,11.76-10.51,16.75-23.64C597.44,630.55,599.1,629.48,600.86,629.48 M600.86,626.48L600.86,626.48
				c-3.04,0-5.81,1.91-6.89,4.74c-4.73,12.45-10.64,18.28-15.8,22.35c-1.54,1.21-2.52,2.96-2.75,4.91
				c-0.23,1.95,0.31,3.88,1.53,5.43c1.4,1.78,3.51,2.8,5.78,2.8c1.65,0,3.26-0.56,4.56-1.58c6.34-5,14.41-12.78,20.45-28.68
				c1.44-3.79-0.47-8.06-4.26-9.5C602.62,626.64,601.75,626.48,600.86,626.48L600.86,626.48z"/>
		</g>
	</g>
	<g>
		<path class="st5" d="M271.4,507.36c-4.69,0-9.17-0.52-13.38-1.65c-0.74-0.2-1.41-0.59-1.96-1.13
			c-24.7-24.7,17.35-99.21,36.58-130.1c15.17-26.13,52.77-72.11,74.6-96.38c33.28-36.28,74.42-78.45,127.4-116.33l1.19-0.79
			c33.36-22.13,83.77-55.59,121.26-48.15c0.46,0.09,0.9,0.25,1.3,0.48c22.59,12.78,2.56,62.5-11.38,91
			c-37.69,75.36-108.52,160-189.5,226.46c-0.03,0.02-0.05,0.05-0.08,0.07C389.49,452.64,319.38,507.36,271.4,507.36z M261.46,497.58
			c43.28,10.12,121.06-50.57,150.56-73.59c80.06-65.71,150.03-149.28,187.17-223.55c16.53-33.78,27.57-71.08,15.46-79.2
			c-33.91-6.1-82.06,25.82-114,47l-1.07,0.71c-52.2,37.32-92.94,79.08-125.89,115c-20.93,23.27-58.81,69.59-73.58,95.01
			C272.68,423.05,246.5,479.96,261.46,497.58z M414.74,427.39h0.03H414.74z"/>
	</g>
	<g>
		<g>
			<path class="st4" d="M742.16,725.7c-11.92,0-23.13-3.68-33.32-10.94c-0.52-0.29-1-0.65-1.41-1.07c-0.54-0.47-1.12-0.91-1.68-1.33
				c-0.17-0.11-0.47-0.33-1.11-0.86l-0.13-0.11c-0.08-0.07-0.16-0.14-0.25-0.2c-0.19-0.12-0.38-0.27-0.56-0.42l-0.2-0.18
				c-0.15-0.13-0.29-0.26-0.45-0.37c-0.45-0.25-0.87-0.56-1.24-0.92c-0.68-0.53-1.38-1.07-2.09-1.6c-1.1-0.84-2.35-1.79-3.5-2.72
				c-0.24-0.17-0.5-0.37-0.76-0.57l-0.23-0.17c-0.21-0.13-0.41-0.27-0.61-0.43c-0.54-0.38-1.09-0.86-1.58-1.38
				c-0.56-0.4-1.13-0.83-1.71-1.27l-0.78-0.59c-5.18-3.83-10.96-7.95-16.43-11.85c-0.25-0.17-0.49-0.38-0.72-0.6
				c-0.54-0.4-1.11-0.78-1.69-1.18l-3.64-2.52c-4.07-2.83-8.29-5.76-12.75-8.79l-1-0.69c-1.54-1.06-3.13-2.15-4.74-3.19
				c-6.14-4.11-12.57-8.31-19.14-12.5c-3.23-2.1-6.39-4.15-9.75-6.28l-4.02-2.51c-2.46-1.54-4.92-3.08-7.38-4.55l-1.54-0.97
				c-3.2-2.01-6.49-4.08-9.89-6.08c-14.72-8.9-28.9-17.17-43.36-25.29c-61.44-30.34-129.68-49.91-195.67-68.84l-0.88-0.25
				c-10.36-2.97-21.08-6.05-31.57-9.11c-2.33-0.68-4.02-2.77-4.2-5.18c-0.19-2.42,1.17-4.73,3.37-5.76
				c31.91-14.88,63.79-37.71,84.88-52.81l4.56-3.26c9.48-7.11,18.77-14.47,27.57-21.84l4.65-3.94c1.52-1.29,3.05-2.59,4.59-3.91
				c45.04-38.15,87.29-83.05,122.18-129.86l2.34-3.13c1.11-1.48,2.23-2.98,3.32-4.49c1.37-1.76,2.56-3.43,3.72-5.05l1.67-2.32
				c3.96-5.42,8-11.22,12.72-18.27c14.82-22.77,36-57.06,48.6-91.58c0.83-2.29,3.03-3.83,5.47-3.85c2.46,0,4.66,1.52,5.52,3.77
				c0.77,2.02,1.4,3.81,2.02,5.8c0.03,0.09,0.06,0.19,0.08,0.29c2.14,6.18,4.27,12.38,6.4,18.59l1.33,3.86
				c21.59,62.9,43.92,127.94,74.45,187.5c0.12,0.17,0.23,0.34,0.33,0.52c0.61,1.09,1.35,2.35,2.2,3.8l0.06,0.1
				c0.95,1.62,2.03,3.47,3.21,5.55c39.82,63.6,74.23,108.41,96.12,134.84c0.12,0.11,0.23,0.23,0.35,0.35
				c1.91,2.14,3.72,4.31,5.48,6.41l0.13,0.16c2.23,2.67,4.34,5.18,6.58,7.58c23.69,28.89,14.7,68.35-25.94,114.2
				c-25.85,27.64-48.94,43.92-70.6,49.81C753.61,724.88,747.77,725.7,742.16,725.7z M715.98,705.44c8.2,5.75,16.74,8.55,26.1,8.55
				c4.55,0,9.38-0.69,14.34-2.05c19.24-5.23,41.11-20.84,65.02-46.39c25.24-28.48,50.23-68.72,25.82-98.55
				c-2.29-2.44-4.62-5.22-6.87-7.91c-1.58-1.9-3.33-3.98-5.07-5.94c-0.2-0.19-0.39-0.38-0.54-0.56
				c-22.15-26.73-56.98-72.04-97.18-136.2c-0.28-0.37-0.5-0.77-0.68-1.18c-0.98-1.72-1.88-3.26-2.69-4.65l-0.4-0.68
				c-0.65-1.11-1.24-2.11-1.75-3.01c-0.21-0.28-0.4-0.57-0.55-0.87c-31.1-60.49-53.65-126.2-75.47-189.74c0,0-3.24-9.44-4.6-13.4
				c-13.14,30.64-31.25,59.71-43.93,79.18c-4.85,7.24-8.98,13.18-13.02,18.7l-1.52,2.12c-1.3,1.83-2.59,3.62-3.97,5.39
				c-1.08,1.5-2.31,3.15-3.54,4.79l-2.08,2.79c-35.4,47.51-78.28,93.08-123.98,131.79c-1.64,1.41-3.31,2.82-4.97,4.23l-4.3,3.65
				c-9.05,7.58-18.54,15.1-28.22,22.35l-4.66,3.34c-18.12,12.97-45.11,32.29-73.19,47.14c5.62,1.62,11.25,3.24,16.89,4.86l1.07,0.31
				c66.48,19.07,135.23,38.79,197.93,69.75c14.7,8.24,29.04,16.6,43.89,25.58c3.5,2.05,6.87,4.17,10.13,6.22l1.43,0.9
				c2.41,1.44,4.93,3.02,7.37,4.54l4.13,2.57c3.58,2.26,6.93,4.44,9.89,6.36c6.69,4.26,13.16,8.49,19.23,12.56
				c1.66,1.07,3.36,2.24,5.01,3.36l0.91,0.62c4.6,3.13,8.94,6.15,13.15,9.07l3.19,2.2c1.03,0.7,1.96,1.34,2.84,2.02
				c0.15,0.12,0.28,0.23,0.41,0.35c5.31,3.78,10.92,7.79,16.04,11.58l0.86,0.65c0.63,0.48,1.28,0.98,1.89,1.38
				c0.33,0.22,0.65,0.47,0.93,0.77l1.74,1.3c0.33,0.25,0.65,0.54,0.92,0.86c0.83,0.67,1.7,1.33,2.56,1.99l0.33,0.25
				c0.8,0.61,1.6,1.22,2.36,1.82c0.21,0.13,0.4,0.27,0.59,0.43c0.48,0.34,0.93,0.72,1.35,1.07c0.32,0.23,0.64,0.49,0.95,0.74
				l0.09,0.08c0.1,0.08,0.19,0.16,0.29,0.23c0.96,0.71,1.72,1.29,2.42,1.88C715.27,704.85,715.64,705.13,715.98,705.44z"/>
			<path class="st4" d="M651.85,181.63c1.81,0,3.43,1.12,4.08,2.81c0.75,1.97,1.37,3.74,1.99,5.71c0.03,0.09,0.05,0.18,0.07,0.26
				c2.59,7.49,5.16,15,7.75,22.51c21.63,62.99,43.99,128.12,74.58,187.79c0.11,0.15,0.21,0.31,0.3,0.47
				c0.62,1.12,1.39,2.42,2.27,3.92c0.95,1.62,2.02,3.46,3.2,5.54c0.03,0.05,0.05,0.09,0.08,0.14
				c39.84,63.62,74.31,108.5,96.25,134.99c0.12,0.11,0.22,0.21,0.33,0.33c1.85,2.08,3.65,4.22,5.43,6.36
				c2.29,2.74,4.46,5.32,6.77,7.8c23.16,28.24,14.12,66.96-25.96,112.18c-25.66,27.43-48.49,43.55-69.88,49.36
				c-5.81,1.59-11.46,2.38-16.95,2.38c-11.65,0-22.54-3.58-32.53-10.71c-0.44-0.23-0.84-0.53-1.17-0.88
				c-0.61-0.54-1.26-1.03-1.86-1.48c-0.22-0.14-0.62-0.45-1.01-0.78c-0.17-0.14-0.32-0.28-0.5-0.39c-0.15-0.1-0.29-0.21-0.43-0.32
				c-0.29-0.25-0.54-0.48-0.82-0.68c-0.39-0.2-0.74-0.47-1.05-0.77c-0.7-0.55-1.44-1.11-2.17-1.67c-1.18-0.9-2.38-1.81-3.49-2.72
				c-0.24-0.17-0.49-0.36-0.74-0.56l-0.31-0.23c-0.18-0.11-0.34-0.22-0.5-0.35c-0.57-0.41-1.08-0.86-1.53-1.35
				c-0.59-0.42-1.18-0.86-1.79-1.33l-0.78-0.59c-5.04-3.73-10.56-7.67-16.47-11.87c-0.22-0.15-0.42-0.33-0.6-0.52
				c-0.61-0.45-1.24-0.88-1.89-1.32l-3.12-2.16c-4.19-2.91-8.57-5.96-13.21-9.11l-0.86-0.59c-1.59-1.09-3.23-2.22-4.92-3.31
				c-6.11-4.09-12.53-8.29-19.14-12.5c-3.21-2.09-6.39-4.15-9.76-6.28l-4.03-2.51c-2.44-1.53-4.91-3.07-7.41-4.56l-1.51-0.95
				c-3.22-2.02-6.5-4.09-9.93-6.1c-14.76-8.92-28.93-17.19-43.39-25.3c-61.64-30.44-129.95-50.03-196.01-68.98
				c-10.83-3.11-21.65-6.21-32.42-9.35c-1.74-0.51-2.99-2.05-3.13-3.86c-0.14-1.81,0.86-3.52,2.51-4.28
				c32.03-14.93,63.98-37.81,85.12-52.95l4.56-3.26c9.47-7.11,18.81-14.5,27.66-21.91l4.09-3.48c1.71-1.45,3.43-2.91,5.15-4.38
				c45.14-38.23,87.45-83.21,122.41-130.1l2.11-2.83c1.19-1.59,2.39-3.19,3.56-4.81c1.38-1.78,2.61-3.49,3.81-5.18l1.57-2.19
				c3.94-5.4,7.99-11.21,12.75-18.31c14.86-22.82,36.11-57.24,48.76-91.9c0.62-1.71,2.24-2.85,4.07-2.87
				C651.83,181.63,651.84,181.63,651.85,181.63 M742.08,715.5c4.73,0,9.63-0.7,14.74-2.1c19.51-5.3,41.62-21.06,65.72-46.82
				c25.62-28.91,50.99-69.91,25.85-100.57c-2.28-2.43-4.63-5.23-6.89-7.94c-1.68-2.01-3.36-4.02-5.1-5.98
				c-0.18-0.16-0.33-0.33-0.46-0.48c-22.21-26.8-56.95-72.01-97.08-136.08c-0.23-0.3-0.43-0.63-0.57-0.99
				c-1.07-1.87-2.05-3.54-2.91-5.02c-0.76-1.31-1.45-2.47-2.03-3.49c-0.18-0.22-0.33-0.46-0.46-0.72
				c-31.05-60.4-53.59-126.05-75.39-189.55c-1.96-5.71-3.92-11.42-5.88-17.11c-13.07,31.56-31.79,61.77-45.33,82.56
				c-4.85,7.24-8.97,13.15-12.97,18.64l-1.53,2.13c-1.28,1.79-2.57,3.6-3.94,5.35c-1.1,1.54-2.33,3.18-3.56,4.81l-2.09,2.79
				c-35.35,47.43-78.14,92.91-123.75,131.54c-1.71,1.47-3.45,2.94-5.17,4.4l-4.09,3.48c-9.01,7.54-18.46,15.04-28.15,22.3
				l-4.63,3.32c-19.18,13.73-47.15,33.76-76.33,48.76c7.18,2.08,14.37,4.14,21.57,6.2c66.43,19.05,135.13,38.76,197.68,69.65
				c14.74,8.27,28.99,16.58,43.78,25.52c3.46,2.03,6.81,4.13,10.1,6.2l1.43,0.9c2.46,1.47,4.98,3.05,7.48,4.61l4.03,2.51
				c3.45,2.17,6.65,4.26,9.86,6.34c6.64,4.23,13.11,8.46,19.21,12.55c1.69,1.09,3.4,2.26,5.07,3.41l0.84,0.57
				c4.65,3.16,9.06,6.23,13.27,9.16l3.06,2.12c0.96,0.65,1.9,1.3,2.77,1.97c0.13,0.11,0.26,0.21,0.38,0.33
				c5.76,4.1,11.14,7.95,16.1,11.61l0.85,0.64c0.67,0.51,1.32,1.01,1.96,1.43c0.29,0.19,0.54,0.41,0.77,0.65l1.84,1.37
				c0.29,0.22,0.55,0.47,0.77,0.74c0.97,0.79,2.01,1.57,3.03,2.36c0.82,0.62,1.64,1.24,2.41,1.85c0.19,0.12,0.37,0.25,0.54,0.39
				c0.45,0.32,0.88,0.67,1.34,1.07c0.32,0.23,0.62,0.47,0.93,0.72c0.16,0.14,0.32,0.28,0.5,0.39c0.87,0.64,1.66,1.24,2.4,1.88
				c0.37,0.19,0.71,0.44,1.01,0.74C723.45,712.54,732.39,715.5,742.08,715.5 M841.37,545.08c0,0-0.01,0-0.01-0.01
				C841.37,545.08,841.37,545.08,841.37,545.08 M705.75,704.97h0.03H705.75 M651.85,178.63h-0.03c-3.08,0.02-5.84,1.97-6.89,4.84
				c-12.55,34.38-33.66,68.57-48.46,91.29c-4.68,6.99-8.71,12.77-12.66,18.18l-1.59,2.21l-0.08,0.11c-1.15,1.62-2.35,3.29-3.67,4.98
				l-0.03,0.04l-0.03,0.04c-1.04,1.45-2.14,2.91-3.19,4.32l-0.34,0.45l-2.11,2.83c-34.83,46.72-76.99,91.54-121.94,129.61
				c-1.61,1.38-3.2,2.73-4.79,4.08l-0.37,0.31l-4.1,3.48c-8.77,7.34-18.02,14.68-27.49,21.78l-4.53,3.24
				c-21.05,15.08-52.86,37.86-84.65,52.68c-2.76,1.29-4.46,4.19-4.23,7.23c0.23,3.04,2.35,5.65,5.28,6.51
				c10.52,3.07,21.27,6.15,31.66,9.14l0.78,0.22c65.92,18.91,134.06,38.45,195.44,68.75c14.41,8.09,28.55,16.34,43.23,25.21
				c3.39,1.99,6.65,4.04,9.8,6.02l0.09,0.05l1.51,0.95l0.03,0.02l0.03,0.02c2.4,1.43,4.81,2.94,7.15,4.4l0.21,0.13l4.04,2.51
				c3.38,2.14,6.65,4.26,9.71,6.25c6.59,4.21,13.02,8.4,19.11,12.48l0.02,0.02l0.02,0.01c1.61,1.04,3.21,2.13,4.75,3.19l0.09,0.06
				l0.85,0.59c4.41,3,8.57,5.88,12.59,8.68l0.61,0.43l3.12,2.17c0.57,0.39,1.13,0.77,1.65,1.14c0.26,0.25,0.54,0.48,0.83,0.68
				c5.46,3.88,11.23,8,16.41,11.83l0.76,0.57c0.49,0.37,1.05,0.8,1.62,1.2c0.51,0.53,1.08,1.02,1.7,1.47c0.2,0.15,0.4,0.3,0.62,0.44
				l0.19,0.15c0.23,0.18,0.48,0.37,0.73,0.55c1.09,0.89,2.23,1.76,3.5,2.73c0.69,0.52,1.37,1.04,2.02,1.55
				c0.42,0.4,0.89,0.75,1.39,1.04c0.08,0.06,0.18,0.16,0.29,0.25l0.19,0.16c0.26,0.22,0.5,0.4,0.75,0.57
				c0.02,0.01,0.06,0.05,0.11,0.09l0.14,0.12c0.64,0.52,0.97,0.77,1.19,0.92c0.51,0.38,1.04,0.78,1.51,1.19
				c0.48,0.49,1.03,0.9,1.64,1.24c10.43,7.41,21.91,11.17,34.12,11.17c5.75,0,11.72-0.84,17.74-2.49
				c21.93-5.96,45.25-22.39,71.27-50.21l0.03-0.03l0.03-0.03c52.05-58.71,42.89-95.53,26.04-116.07l-0.06-0.07l-0.07-0.07
				c-2.21-2.38-4.32-4.89-6.55-7.54l-0.12-0.14c-1.66-1.99-3.55-4.25-5.49-6.43c-0.13-0.14-0.25-0.27-0.38-0.39
				c-21.85-26.39-56.17-71.1-95.86-134.47l-0.05-0.09c-1.16-2.05-2.23-3.87-3.22-5.56l-0.04-0.07c-0.86-1.46-1.6-2.72-2.19-3.8
				c-0.11-0.19-0.22-0.38-0.35-0.56c-30.45-59.43-52.76-124.39-74.32-187.21l-1.19-3.47c-2.17-6.32-4.34-12.62-6.51-18.92
				c-0.03-0.1-0.06-0.21-0.09-0.31c-0.63-2.02-1.27-3.84-2.05-5.89C657.65,180.54,654.89,178.63,651.85,178.63L651.85,178.63z
				 M590.23,309.12c1.38-1.77,2.67-3.57,3.98-5.41l1.52-2.12c4.03-5.52,8.18-11.48,13.03-18.72c12.24-18.8,29.49-46.46,42.53-75.9
				c0.99,2.87,1.97,5.75,2.96,8.63l0.39,1.13c21.83,63.59,44.41,129.35,75.56,189.94c0.17,0.34,0.38,0.68,0.63,1.01
				c0.5,0.88,1.08,1.87,1.71,2.95l0.23,0.4l0.08,0.14c0.82,1.4,1.73,2.96,2.73,4.7c0.21,0.47,0.47,0.92,0.78,1.35
				c40.23,64.21,75.09,109.56,97.25,136.3c0.21,0.24,0.41,0.46,0.63,0.67c1.73,1.95,3.44,3.99,4.95,5.8l0.06,0.07
				c2.25,2.69,4.58,5.47,6.88,7.93c13.09,16.03,19.19,45.79-25.81,96.57c-23.71,25.33-45.33,40.79-64.29,45.94
				c-4.84,1.33-9.53,2-13.95,2c-9.01,0-17.24-2.69-25.16-8.22c-0.36-0.33-0.76-0.62-1.18-0.87c-0.71-0.6-1.45-1.16-2.34-1.82
				l-0.06-0.04l-0.06-0.04c-0.05-0.04-0.1-0.08-0.16-0.13l-0.08-0.07c-0.31-0.25-0.64-0.52-0.99-0.78
				c-0.42-0.36-0.88-0.73-1.37-1.09c-0.2-0.16-0.41-0.32-0.62-0.46c-0.75-0.59-1.54-1.19-2.34-1.79l-0.34-0.26
				c-0.81-0.62-1.64-1.26-2.42-1.88c-0.33-0.36-0.68-0.69-1.07-0.97l-1.65-1.24c-0.34-0.33-0.71-0.63-1.1-0.89
				c-0.56-0.37-1.18-0.85-1.78-1.31l-0.87-0.66c-5.19-3.84-10.97-7.97-16.01-11.55c-0.13-0.12-0.27-0.23-0.41-0.34
				c-0.94-0.73-1.89-1.38-2.95-2.1l-3.04-2.1c-4.23-2.94-8.61-5.99-13.29-9.17l-0.83-0.57c-1.66-1.14-3.38-2.32-5.11-3.44
				c-6.08-4.08-12.56-8.31-19.25-12.57c-3.39-2.21-6.49-4.22-9.87-6.35l-4.04-2.52c-2.47-1.54-5.01-3.14-7.49-4.62l-1.4-0.88
				c-3.28-2.06-6.67-4.19-10.18-6.25c-14.84-8.97-29.19-17.34-43.83-25.55l-0.07-0.04l-0.07-0.03
				c-62.81-31.02-131.63-50.76-198.18-69.85l-0.83-0.24c-4.53-1.3-9.06-2.6-13.59-3.9c26.98-14.64,52.65-33.01,70.07-45.48
				l4.66-3.33l0.03-0.02l0.03-0.02c9.7-7.27,19.21-14.81,28.27-22.4l4.11-3.49l0.29-0.25c1.63-1.38,3.28-2.78,4.89-4.17
				c45.78-38.77,88.73-84.43,124.2-132.03l2.08-2.79C587.86,312.35,589.11,310.68,590.23,309.12L590.23,309.12z"/>
		</g>
	</g>
	<g>
		<g>
			<path class="st4" d="M271.24,550c-18.09,0-32.8-6.22-43.74-18.49c-60.7-68.12,65.88-225.27,71.3-231.93
				c30.83-40.75,88.54-103.11,147.87-150.48c43.4-34.65,106.36-75.95,159.77-75.95c8.64,0,16.89,1.09,24.52,3.23
				c0.25,0.07,0.5,0.16,0.73,0.27c37.25,17.14,45.61,54.46,24.86,110.92c-0.15,0.4-0.34,0.78-0.58,1.12
				c-13.96,35.43-34.86,72.92-62.11,111.41l-1.65,2.29c-1.25,1.74-2.51,3.49-3.8,5.22l-5.69,7.67
				c-35.24,46.32-79.23,93.06-123.86,131.62c-3.22,2.78-6.5,5.54-9.32,7.91c-8.97,7.52-18.44,15.03-28.13,22.31l-5.13,3.66
				c-21.34,15.25-53.59,38.29-86.17,53.47C307.7,544.71,287.9,550,271.25,550H271.24z M606.21,83.11
				c-29.59,0-82.25,14.46-165.05,83.36c-58,48.26-108.71,105.19-134.5,139.29c-1.31,1.61-126.74,157.35-71.7,219.12
				c8.94,10.02,21.21,15.11,36.46,15.11c15.12,0,33.45-4.96,54.48-14.76c31.73-14.79,63.52-37.5,84.55-52.53l5.07-3.61
				c9.46-7.1,18.75-14.48,27.61-21.9c2.55-2.14,5.9-4.96,9.22-7.82c44.11-38.12,87.58-84.3,122.39-130.05l5.67-7.63
				c1.27-1.7,2.5-3.41,3.72-5.1l1.63-2.27c27.09-38.27,47.76-75.44,61.42-110.48c0.13-0.33,0.29-0.63,0.47-0.91
				c18.02-49.84,11.37-82.48-19.76-97.03C621.16,84.05,613.86,83.11,606.21,83.11z M271.44,508c-4.85,0-9.42-0.57-13.59-1.68
				c-0.84-0.22-1.62-0.67-2.24-1.29c-11.12-11.12-10.09-33.5,3.07-66.5c10.33-25.91,25.37-51.46,33.41-64.38
				c15.04-25.89,53.44-72.88,74.66-96.47c33.29-36.3,74.47-78.5,127.5-116.41l1.3-0.86c29.57-19.61,74.26-49.25,110.28-49.25
				c3.96,0,7.79,0.36,11.37,1.07c0.52,0.1,1.02,0.29,1.49,0.56c23.89,13.51,0.18,68.71-11.13,91.82
				c-37.72,75.43-108.62,160.16-189.66,226.67C388.46,454.24,319.58,508,271.44,508z M261.81,497.01c3.08,0.7,6.44,1.05,10,1.05
				c44.26,0,113.72-54.2,139.87-74.61c79.94-65.6,149.83-149.09,186.95-223.3c16.29-33.29,27.42-70.29,15.78-78.32
				c-2.73-0.48-5.63-0.72-8.65-0.72c-32.89,0-76.14,28.68-104.76,47.66l-1.07,0.71c-52.14,37.28-92.85,79.01-125.78,114.91
				c-20.92,23.26-58.75,69.52-73.5,94.9c-15.43,24.8-27.96,49.53-35.31,69.69C256.69,472.69,255.48,489.28,261.81,497.01z"/>
			<path class="st4" d="M606.45,74.67c8.31,0,16.38,1,24.11,3.18c0.18,0.05,0.35,0.11,0.51,0.19
				c36.41,16.76,44.52,53.45,24.08,109.04c-0.12,0.33-0.29,0.64-0.5,0.91c-13.92,35.37-34.78,72.81-62.01,111.28l-1.64,2.27
				c-1.25,1.74-2.51,3.48-3.79,5.21l-5.69,7.67c-35.19,46.25-79.09,92.89-123.64,131.38c-3.12,2.69-6.24,5.32-9.31,7.89
				c-8.98,7.53-18.42,15.02-28.07,22.26l-5.1,3.64c-21.3,15.22-53.48,38.21-85.93,53.33c-22.31,10.39-41.76,15.59-58.22,15.59
				c0,0-0.01,0-0.02,0c-17.68,0-31.93-6-42.62-17.98c-59.89-67.21,65.96-223.37,71.34-229.98
				c30.77-40.67,88.41-102.97,147.64-150.25C492.78,114.23,554.25,74.67,606.45,74.67 M271.42,541.49c15.38,0,33.78-4.97,55.11-14.9
				c31.87-14.85,63.74-37.62,84.82-52.69l5.03-3.59c9.48-7.12,18.83-14.53,27.7-21.98c3.04-2.55,6.14-5.17,9.24-7.83
				c44.19-38.18,87.73-84.45,122.6-130.28l5.68-7.65c1.27-1.71,2.51-3.42,3.73-5.12l1.63-2.26c27.16-38.36,47.89-75.66,61.6-110.81
				c0.11-0.28,0.25-0.53,0.42-0.77c18.43-50.86,11.5-84.2-20.58-99.13c-7.05-1.95-14.48-2.88-22.2-2.88
				c-98.02,0-244.42,148.79-300.75,223.24c-1.36,1.67-127.58,158.22-71.62,221.03C243.11,536.28,255.68,541.49,271.42,541.49
				 M605.84,112.64c3.8,0,7.49,0.33,11.08,1.04c0.36,0.07,0.72,0.2,1.04,0.39c22.78,12.89-0.62,67.13-11.73,89.86
				c-37.63,75.25-108.38,159.79-189.26,226.17c-27.93,21.8-97.89,76.4-145.52,76.4c-4.63,0-9.05-0.52-13.2-1.63
				c-0.59-0.16-1.13-0.47-1.56-0.9c-24.94-24.94,21.79-105.06,36.7-129.03c14.99-25.81,53.33-72.72,74.5-96.26
				c33.25-36.25,74.35-78.37,127.26-116.2l1.17-0.78C526.35,141.78,570.24,112.64,605.84,112.64 M271.81,499.57
				c44.77,0,113.48-53.62,140.79-74.93c80.1-65.74,150.17-149.43,187.37-223.81c15.54-31.77,28.68-71.67,15.01-80.41
				c-2.97-0.55-6.06-0.8-9.22-0.8c-33.33,0-76.26,28.46-105.59,47.91l-1.07,0.71c-52.29,37.39-93.07,79.19-126.05,115.14
				c-20.96,23.3-58.89,69.69-73.69,95.16C271.68,423,245.35,480.6,260.99,498.36C264.4,499.18,268.02,499.57,271.81,499.57
				 M606.46,71.67v3V71.67c-24.12,0-52.2,8.29-83.45,24.63c-24.17,12.64-50.17,30.01-77.26,51.64
				c-59.41,47.43-117.2,109.88-148.13,150.75c-3.76,4.62-35.92,44.7-60.46,92.76c-14.38,28.15-23.25,53.49-26.37,75.29
				c-3.95,27.6,1.3,49.73,15.61,65.78c11.23,12.6,26.32,18.99,44.86,18.99c16.88,0,36.9-5.34,59.5-15.87
				c32.71-15.24,65.03-38.33,86.41-53.61l5.09-3.64l0.03-0.02l0.03-0.02c9.72-7.3,19.2-14.82,28.2-22.36
				c2.99-2.51,6.17-5.19,9.34-7.92c44.71-38.63,88.77-85.45,124.07-131.84l5.71-7.7c1.31-1.75,2.6-3.55,3.82-5.24l1.64-2.27
				c27.3-38.56,48.23-76.1,62.24-111.6c0.26-0.4,0.48-0.84,0.65-1.3c10.37-28.22,13.53-52.03,9.39-70.77
				c-4.23-19.14-16.01-33.28-35.03-42.03c-0.31-0.14-0.63-0.26-0.96-0.35C623.61,72.77,615.23,71.67,606.46,71.67L606.46,71.67z
				 M271.42,538.49c-14.81,0-26.7-4.91-35.34-14.61c-12.13-13.62-16.13-33.23-11.89-58.3c3.48-20.53,12.43-44.67,26.62-71.75
				c24.81-47.35,56.66-86.7,56.97-87.09l0.03-0.04l0.03-0.04c25.75-34.03,76.37-90.87,134.27-139.04
				c45.51-37.87,110.93-83.01,164.09-83.01c7.48,0,14.59,0.91,21.16,2.7c14.93,7.01,24.13,18.41,27.34,33.87
				c3.3,15.9,0.47,36.44-8.42,61.08c-0.2,0.32-0.36,0.66-0.5,1.01c-13.63,34.94-34.24,72.01-61.26,110.18l-1.62,2.24
				c-1.17,1.63-2.41,3.36-3.7,5.08l-5.68,7.65c-34.73,45.63-78.12,91.74-122.16,129.79c-3.25,2.8-6.48,5.52-9.21,7.81
				c-8.82,7.4-18.09,14.75-27.55,21.85l-5.01,3.57l-0.04,0.03c-20.99,14.99-52.71,37.65-84.3,52.38
				C304.43,533.57,286.32,538.49,271.42,538.49L271.42,538.49z M605.85,109.64v3V109.64c-36.48,0-81.4,29.8-111.13,49.51l-0.07,0.05
				l-1.17,0.78l-0.04,0.03l-0.04,0.03C440.25,198.03,399,240.3,365.67,276.65c-21.27,23.65-59.73,70.71-74.86,96.74
				c-8.07,12.98-23.14,38.59-33.51,64.58c-13.4,33.61-14.33,56.52-2.74,68.11c0.81,0.81,1.82,1.39,2.92,1.68
				c4.28,1.15,8.98,1.73,13.97,1.73c20.97,0,48.45-10.25,81.7-30.46c27.08-16.46,51.23-35.31,65.66-46.57l0.03-0.02l0.04-0.03
				c81.19-66.64,152.24-151.55,190.04-227.15c6.19-12.66,14.47-31.46,18.81-49.25c5.67-23.25,2.88-38.25-8.28-44.56
				c-0.6-0.34-1.26-0.59-1.94-0.72C613.82,110.01,609.9,109.64,605.85,109.64L605.85,109.64z M500.8,170.7l1.02-0.68
				c28.46-18.88,71.49-47.4,103.93-47.4c2.8,0,5.51,0.22,8.05,0.64c8.92,6.83,2.22,37.93-16.53,76.25
				c-37.01,74-106.75,157.29-186.55,222.79c-26.06,20.34-95.18,74.27-138.91,74.27c-3.25,0-6.32-0.3-9.15-0.9
				c-5.62-7.47-4.22-23.39,4.09-46.18c7.32-20.06,19.8-44.7,35.16-69.37l0.02-0.04l0.02-0.04c14.69-25.29,52.44-71.44,73.33-94.66
				C408.13,249.56,448.75,207.92,500.8,170.7L500.8,170.7z"/>
		</g>
	</g>
	<g>
		<g>
			<path class="st4" d="M715.72,422.29c-1.71,0-3.33-0.74-4.44-2.03c-35.01-40.59-60.77-89.44-74.5-141.25
				c-0.4-1.51-0.19-3.09,0.6-4.45s2.05-2.32,3.57-2.72c0.49-0.13,1-0.19,1.5-0.19c2.66,0,5,1.79,5.67,4.36
				c13.28,50.11,38.19,97.34,72.04,136.6c1.02,1.18,1.52,2.7,1.41,4.26s-0.83,2.99-2.02,4.01
				C718.48,421.78,717.12,422.29,715.72,422.29z"/>
			<path class="st4" d="M642.44,273.14c1.93,0,3.71,1.28,4.22,3.24c13.34,50.33,38.36,97.77,72.35,137.19
				c1.57,1.82,1.37,4.58-0.45,6.15c-0.83,0.71-1.84,1.06-2.85,1.06c-1.23,0-2.44-0.51-3.31-1.51
				c-34.86-40.42-60.51-89.06-74.18-140.66c-0.62-2.33,0.77-4.72,3.1-5.33C641.7,273.19,642.07,273.14,642.44,273.14 M642.44,270.14
				L642.44,270.14c-0.63,0-1.26,0.08-1.87,0.24c-3.93,1.04-6.28,5.08-5.24,9.01c13.79,52.03,39.66,101.08,74.81,141.85
				c1.4,1.62,3.43,2.55,5.58,2.55c1.76,0,3.47-0.64,4.81-1.79c1.49-1.28,2.39-3.07,2.53-5.03c0.14-1.96-0.48-3.86-1.77-5.35
				c-33.7-39.08-58.5-86.11-71.73-136C648.71,272.39,645.78,270.14,642.44,270.14L642.44,270.14z"/>
		</g>
	</g>
	<g>
		<g>
			<g>
				<path class="st4" d="M675.65,959.9c-2.36,0-4.48-1.4-5.4-3.57l-34.27-80.64c-0.41-0.97-0.55-2.02-0.42-3.06
					c0.15-1.16,3.75-28.65,9.33-47.69c5.12-17.52,34.9-74.3,80.65-92.98c0.73-0.82,1.89-2.68,1.05-5.62
					c-0.43-1.51-0.25-3.09,0.51-4.46c0.76-1.37,2.01-2.36,3.51-2.79c0.53-0.15,1.07-0.23,1.62-0.23c2.6,0,4.92,1.75,5.63,4.24
					c2.69,9.36-2.28,16.09-5.64,18.6c-0.41,0.31-0.87,0.57-1.35,0.76c-39.96,15.74-69.24,67.03-74.72,85.77
					c-4.57,15.63-7.97,38.83-8.74,44.35l33.64,79.16c0.61,1.44,0.63,3.04,0.04,4.49c-0.59,1.45-1.7,2.59-3.14,3.2
					C677.21,959.74,676.44,959.9,675.65,959.9z"/>
				<path class="st4" d="M732.23,720.36c1.9,0,3.64,1.24,4.19,3.16c2.46,8.56-2.05,14.71-5.1,16.98c-0.31,0.23-0.65,0.42-1.01,0.57
					c-40.44,15.93-70.06,67.8-75.6,86.74c-4.69,16.02-8.09,39.5-8.84,44.97l33.8,79.54c0.94,2.22-0.09,4.78-2.31,5.72
					c-0.56,0.24-1.14,0.35-1.7,0.35c-1.7,0-3.31-1-4.02-2.66l-34.27-80.64c-0.3-0.72-0.41-1.5-0.31-2.27
					c0.15-1.16,3.77-28.66,9.28-47.46c5.11-17.46,34.68-73.79,80.08-92.13c0.82-0.82,2.77-3.29,1.62-7.3
					c-0.66-2.32,0.68-4.73,2.99-5.4C731.43,720.42,731.83,720.36,732.23,720.36 M732.23,717.36L732.23,717.36
					c-0.68,0-1.37,0.1-2.03,0.28c-1.89,0.54-3.46,1.79-4.41,3.51c-0.95,1.72-1.18,3.71-0.64,5.6c0.56,1.95,0.03,3.23-0.52,3.96
					c-24.93,10.3-44.07,31.27-55.78,47.13c-13.36,18.09-22.53,36.87-25.39,46.68c-5.62,19.18-9.22,46.76-9.37,47.92
					c-0.17,1.29,0.01,2.62,0.52,3.83l34.27,80.65c1.16,2.72,3.82,4.48,6.78,4.48c0.98,0,1.95-0.2,2.87-0.58
					c1.82-0.77,3.22-2.2,3.96-4.02c0.74-1.83,0.72-3.83-0.05-5.64l-33.47-78.77c0.87-6.15,4.19-28.55,8.64-43.72
					c2.66-9.1,11.38-26.61,24.22-43.53c10.73-14.14,28.05-32.78,49.6-41.26c0.61-0.24,1.19-0.56,1.71-0.95
					c3.66-2.74,9.09-10.07,6.18-20.21C738.4,719.55,735.49,717.36,732.23,717.36L732.23,717.36z"/>
			</g>
		</g>
		<g>
			<g>
				<path class="st4" d="M447.7,861.92c-6.04,0-12.09-1.76-17.04-4.97c-17.14-11.1-45.94-67.05-42.96-98.24
					c0.89-9.26,4.66-16.64,11.22-21.94c9.09-7.35,21.28-8.62,28.1-8.68c2.19-11.68,7.45-20.14,15.63-25.15
					c5.39-3.31,11.89-4.98,19.33-4.98c3.76,0,7.67,0.42,11.64,1.26c0.89-9.86,4.61-17.46,11.04-22.62
					c5.9-4.73,13.78-7.13,23.41-7.13c1.81,0,3.67,0.09,5.55,0.26c-0.84-6.94,0.19-13.2,3.07-18.61
					c3.72-7.01,10.42-12.21,18.87-14.63c2.87-0.82,5.86-1.24,8.89-1.24c11.67,0,23.07,6.2,29.76,16.17l51.92,77.42
					c19.9-13.93,56.87-29.4,58.47-30.06c0.72-0.3,1.47-0.45,2.25-0.45c2.37,0,4.5,1.42,5.42,3.62c0.6,1.45,0.6,3.04,0.01,4.49
					c-0.6,1.45-1.72,2.58-3.17,3.18c-1.8,0.75-44.26,18.57-60.64,32.16c-1.05,0.87-2.38,1.35-3.74,1.35c-0.28,0-0.57-0.02-0.85-0.06
					c-1.63-0.24-3.1-1.16-4.02-2.54l-3.65-5.45c-1.12,9.26-5.53,20.53-18.62,28.71c-4.15,2.59-9.07,3.9-14.63,3.9
					c-5.02,0-10.49-1.04-16.27-3.11c2.27,16.8-2.81,28.36-14.43,32.69c-4.73,1.77-9.64,2.67-14.58,2.67
					c-4.83,0-9.66-0.84-14.37-2.49c0.14,10.01-2.2,25.4-16.69,31.5c-4.38,1.84-8.98,2.77-13.68,2.77c-5.37,0-10.81-1.19-16.22-3.53
					c0.49,17.05-7.5,25.3-12.47,28.76C459.55,860.19,453.83,861.92,447.7,861.92z M427.61,739.82c-5.17,0-14.82,0.79-21.34,6.08
					c-4.06,3.29-6.31,7.85-6.89,13.92c-2.55,26.65,23.34,78.01,37.66,87.28c3.12,2.02,6.91,3.13,10.67,3.13
					c3.68,0,7.08-1.01,9.83-2.93c7.01-4.88,9.17-15.2,6.07-29.06c-0.55-2.47,0.54-5,2.71-6.31c0.91-0.54,1.95-0.83,3.01-0.83
					c1.4,0,2.76,0.5,3.82,1.41c0.35,0.29,9.02,7.4,19.88,7.4c3.13,0,6.17-0.61,9.02-1.81c13.56-5.71,8.64-29.16,8.59-29.4
					c-0.52-2.38,0.5-4.87,2.55-6.19c0.95-0.61,2.05-0.94,3.18-0.94c1.27,0,2.48,0.4,3.5,1.16c0.29,0.21,7.53,5.43,17.75,5.43
					c3.57,0,7.11-0.65,10.52-1.92c5.31-1.98,7.76-7.48,7.27-16.34c-0.39-7.07-2.59-13.66-2.62-13.73c-0.8-2.33-0.05-4.93,1.86-6.47
					c1.04-0.84,2.35-1.3,3.68-1.3c1.07,0,2.12,0.29,3.03,0.85c0.46,0.27,11.47,6.72,21.47,6.72c3.34,0,6.2-0.73,8.49-2.16
					c21.36-13.34,11.05-37.24,10.6-38.25c-0.35-0.78-0.52-1.63-0.5-2.48l-36.99-55.15c-4.54-6.77-12.19-10.98-19.97-10.98
					c-1.95,0-3.88,0.27-5.71,0.79c-5.36,1.54-9.53,4.68-11.75,8.85c-2.58,4.87-2.66,11.09-0.24,18.5c0.67,2.06,0.16,4.31-1.33,5.87
					c-1.1,1.16-2.64,1.82-4.23,1.82c-0.53,0-1.05-0.07-1.56-0.21c-0.92-0.23-5.84-1.4-11.71-1.4c-6.84,0-12.22,1.54-15.99,4.57
					c-4.98,4-7.26,11.02-6.78,20.86c0.1,1.99-0.81,3.88-2.43,5.04c-1,0.72-2.18,1.1-3.43,1.1c-0.73,0-1.44-0.13-2.12-0.39
					c-0.07-0.03-7.2-2.7-15.29-2.7c-5.22,0-9.66,1.1-13.18,3.27c-6.12,3.77-9.77,11.1-10.85,21.79c-0.16,1.55-0.95,3-2.16,3.98
					c-1.03,0.83-2.36,1.29-3.73,1.29c-0.19,0-0.39-0.01-0.58-0.03C431.37,739.98,429.91,739.82,427.61,739.82z"/>
				<path class="st4" d="M544.44,636.75c11.01,0,21.95,5.72,28.51,15.5l52.78,78.7c19.52-14.13,57.71-30.08,59.43-30.79
					c0.55-0.23,1.11-0.34,1.67-0.34c1.71,0,3.33,1.02,4.03,2.69c0.92,2.22-0.13,4.78-2.36,5.7c-0.44,0.18-44.25,18.48-61.03,32.39
					c-0.78,0.65-1.78,1.01-2.78,1.01c-0.21,0-0.42-0.02-0.63-0.05c-1.22-0.18-2.31-0.86-3-1.89l-6.08-9.07
					c-0.23,11.02-4.58,23.37-18.23,31.9c-4.29,2.68-9.08,3.67-13.83,3.67c-6.63,0-13.17-1.93-18.14-3.92
					c1.89,10.86,2.12,27.93-13.08,33.6c-4.98,1.86-9.72,2.57-14.06,2.57c-6.35,0-11.83-1.52-15.94-3.19
					c0.53,10.13-1.15,26.19-15.7,32.32c-4.54,1.91-8.96,2.66-13.09,2.66c-7,0-13.21-2.14-17.84-4.44
					c1.33,17.77-6.42,26.26-11.7,29.94c-4.52,3.15-10.06,4.72-15.68,4.72c-5.63,0-11.35-1.57-16.22-4.73
					c-16.87-10.93-45.22-66.08-42.28-96.84c0.85-8.84,4.43-15.87,10.67-20.92c8.92-7.21,20.97-8.35,27.7-8.35c0.24,0,0.48,0,0.71,0
					c1.97-11.89,7.06-20.41,15.16-25.38c5.9-3.62,12.52-4.76,18.54-4.76c5.01,0,9.6,0.79,13.01,1.61
					c0.57-10.28,4.13-18.1,10.61-23.3c6.71-5.38,15.28-6.8,22.47-6.8c2.68,0,5.18,0.2,7.31,0.46c-1.22-7.32-0.34-14.01,2.63-19.6
					c3.53-6.65,9.91-11.58,17.96-13.89C538.74,637.13,541.6,636.75,544.44,636.75 M521.23,681.3c-0.39,0-0.78-0.05-1.16-0.16
					c-0.1-0.02-5.51-1.45-12.11-1.45c-5.63,0-12.13,1.04-16.93,4.9c-5.38,4.32-7.85,11.76-7.34,22.1c0.08,1.48-0.61,2.89-1.8,3.75
					c-0.75,0.54-1.65,0.82-2.55,0.82c-0.53,0-1.07-0.1-1.58-0.29c-0.11-0.04-7.43-2.8-15.83-2.8c-4.67,0-9.68,0.85-13.96,3.49
					c-6.54,4.03-10.43,11.74-11.56,22.92c-0.12,1.16-0.7,2.23-1.61,2.96c-0.79,0.64-1.79,0.96-2.79,0.96c-0.15,0-0.3-0.01-0.44-0.02
					c-0.05-0.01-1.57-0.17-3.95-0.17c-5.46,0-15.43,0.85-22.29,6.42c-4.39,3.56-6.82,8.45-7.44,14.94
					c-2.59,27.06,23.77,79.25,38.34,88.68c3.47,2.24,7.52,3.37,11.49,3.37c3.86,0,7.63-1.06,10.69-3.2
					c7.54-5.25,9.92-16.12,6.68-30.61c-0.41-1.83,0.4-3.73,2.01-4.69c0.69-0.41,1.47-0.62,2.24-0.62c1.02,0,2.04,0.36,2.85,1.05
					c0.11,0.09,9.31,7.76,20.85,7.76c3.08,0,6.32-0.54,9.6-1.92c14.77-6.21,9.53-30.85,9.47-31.1c-0.39-1.78,0.36-3.62,1.9-4.61
					c0.72-0.47,1.55-0.7,2.37-0.7c0.92,0,1.83,0.29,2.6,0.87c0.41,0.3,7.99,5.73,18.65,5.73c3.41,0,7.14-0.56,11.05-2.01
					c14.48-5.4,5.64-31.7,5.55-31.97c-0.6-1.74-0.04-3.66,1.39-4.81c0.79-0.64,1.77-0.97,2.74-0.97c0.78,0,1.56,0.21,2.26,0.63
					c0.15,0.09,11.63,6.94,22.25,6.94c3.3,0,6.52-0.66,9.29-2.39c22.44-14.02,11.65-39.07,11.18-40.13
					c-0.33-0.74-0.44-1.53-0.34-2.28l-37.28-55.58c-4.92-7.34-13.07-11.64-21.21-11.65c-2.06,0-4.12,0.28-6.12,0.85
					c-5.76,1.65-10.25,5.06-12.66,9.59c-2.78,5.24-2.89,11.86-0.34,19.67c0.5,1.53,0.12,3.2-0.99,4.37
					C523.55,680.82,522.4,681.3,521.23,681.3 M544.44,633.75c-3.17,0-6.3,0.44-9.31,1.3c-8.85,2.53-15.87,7.99-19.79,15.37
					c-2.72,5.13-3.88,11.18-3.4,17.67c-1.31-0.08-2.61-0.13-3.89-0.13c-9.98,0-18.17,2.51-24.35,7.46
					c-6.4,5.13-10.23,12.52-11.42,22c-3.52-0.65-6.98-0.97-10.33-0.97c-7.71,0-14.48,1.75-20.11,5.2
					c-8.27,5.08-13.68,13.46-16.08,24.96c-7.18,0.21-18.89,1.78-27.8,8.99c-6.88,5.57-10.84,13.29-11.77,22.96
					c-1.38,14.41,3.72,35.33,13.98,57.41c9.3,20.01,20.94,36.59,29.66,42.24c5.27,3.41,11.44,5.21,17.85,5.21
					c6.44,0,12.46-1.82,17.4-5.26c5-3.48,12.9-11.53,13.13-27.75c4.9,1.86,9.83,2.8,14.7,2.8c4.9,0,9.69-0.97,14.26-2.89
					c11.17-4.7,17.33-15.56,17.61-30.82c4.23,1.28,8.55,1.92,12.87,1.92c5.12,0,10.21-0.93,15.11-2.76
					c11.78-4.39,17.25-15.64,15.67-31.92c5.11,1.62,9.97,2.43,14.5,2.43c5.85,0,11.03-1.39,15.42-4.12
					c11.84-7.4,16.84-17.24,18.69-26l1.54,2.3c1.16,1.73,3,2.89,5.06,3.19c0.34,0.05,0.7,0.08,1.06,0.08c1.71,0,3.38-0.6,4.7-1.7
					c16.17-13.41,58.47-31.18,60.26-31.93c1.82-0.75,3.23-2.17,3.98-3.99c0.75-1.82,0.75-3.82-0.01-5.63
					c-1.15-2.76-3.82-4.54-6.8-4.54c-0.98,0-1.93,0.19-2.83,0.57c-1.56,0.65-37.13,15.51-57.49,29.35l-51.08-76.16
					C568.49,640.2,556.61,633.75,544.44,633.75L544.44,633.75z M521.23,684.3c2,0,3.94-0.83,5.32-2.29
					c1.87-1.96,2.51-4.78,1.67-7.36c-2.29-7.01-2.25-12.84,0.14-17.34c2.02-3.81,5.87-6.69,10.84-8.11c1.7-0.48,3.49-0.73,5.3-0.73
					c7.28,0,14.45,3.95,18.72,10.32l36.75,54.79c0.04,0.9,0.26,1.79,0.63,2.62c0.43,0.96,10.22,23.72-10.03,36.36
					c-2.06,1.29-4.65,1.94-7.7,1.94c-9.58,0-20.27-6.25-20.72-6.51c-1.13-0.68-2.45-1.05-3.79-1.05c-1.68,0-3.32,0.58-4.63,1.63
					c-2.4,1.94-3.35,5.2-2.34,8.12c0.02,0.06,2.17,6.45,2.54,13.37c0.43,8.11-1.69,13.09-6.3,14.81c-3.25,1.21-6.61,1.82-10,1.82
					c-9.74,0-16.59-4.94-16.88-5.15c-1.26-0.94-2.78-1.45-4.38-1.45c-1.42,0-2.81,0.41-4,1.18c-2.57,1.66-3.85,4.78-3.19,7.77
					c0.05,0.21,4.67,22.48-7.71,27.69c-2.67,1.12-5.5,1.69-8.43,1.69c-10.29,0-18.85-7-18.94-7.07c-1.3-1.11-3.01-1.74-4.77-1.74
					c-1.33,0-2.64,0.36-3.78,1.04c-2.73,1.64-4.09,4.82-3.4,7.92c2.95,13.22,1.01,22.99-5.47,27.5c-2.46,1.71-5.65,2.66-8.98,2.66
					c-3.48,0-6.98-1.03-9.86-2.89c-13.71-8.88-39.43-60.23-36.98-85.88c0.55-5.73,2.56-9.83,6.35-12.9c6.16-5,15.43-5.75,20.4-5.75
					c2.03,0,3.36,0.12,3.58,0.14l0.02,0l0.07,0.01c0.24,0.02,0.49,0.03,0.73,0.03c1.71,0,3.37-0.58,4.67-1.62
					c1.52-1.23,2.51-3.05,2.71-4.99c1.03-10.21,4.44-17.16,10.14-20.67c3.28-2.02,7.45-3.05,12.39-3.05c7.78,0,14.7,2.58,14.77,2.6
					c0.84,0.32,1.73,0.49,2.64,0.49c1.56,0,3.05-0.48,4.31-1.39c2.03-1.46,3.17-3.83,3.04-6.34c-0.45-9.33,1.64-15.93,6.23-19.61
					c3.5-2.81,8.56-4.24,15.05-4.24c5.69,0,10.44,1.13,11.34,1.36l0.01,0C519.94,684.22,520.58,684.3,521.23,684.3L521.23,684.3z"/>
			</g>
		</g>
		<g>
			<g>
				<path class="st4" d="M488.48,1006.83c-2.89,0-5.38-2.16-5.8-5.03l-8.08-55.83c-58.46-19.44-56.44-100.46-56.33-103.91
					c0.1-3.12,2.77-5.66,5.94-5.66l0.11,0c3.23,0.1,5.77,2.82,5.67,6.05c-0.02,0.78-1.7,78.69,51.43,93.35
					c2.24,0.62,3.91,2.51,4.25,4.81l8.61,59.52c0.46,3.2-1.77,6.18-4.96,6.64C489.04,1006.82,488.76,1006.83,488.48,1006.83z"/>
				<path class="st4" d="M424.22,837.9c0.02,0,0.04,0,0.06,0c2.41,0.08,4.29,2.1,4.22,4.5c-0.02,0.8-1.95,79.81,52.54,94.84
					c1.67,0.46,2.91,1.87,3.16,3.58l8.61,59.52c0.34,2.38-1.31,4.6-3.7,4.94c-0.21,0.03-0.42,0.04-0.63,0.04
					c-2.13,0-4-1.56-4.31-3.74l-8.21-56.75c-58.31-18.57-56.29-99.25-56.18-102.73C419.86,839.73,421.94,837.9,424.22,837.9
					 M424.22,834.9L424.22,834.9c-3.97,0-7.31,3.19-7.44,7.12c-0.12,3.48-2.13,84.79,56.47,105.09l7.95,54.92
					c0.52,3.6,3.65,6.31,7.28,6.31c0.36,0,0.72-0.03,1.06-0.08c1.94-0.28,3.67-1.3,4.84-2.88c1.18-1.58,1.67-3.51,1.39-5.46
					l-8.61-59.52c-0.42-2.9-2.51-5.27-5.33-6.05c-52-14.34-50.36-91.09-50.33-91.86c0.13-4.05-3.06-7.46-7.12-7.59l-0.03,0l-0.03,0
					L424.22,834.9L424.22,834.9z"/>
			</g>
		</g>
		<g>
			<g>
				<path class="st4" d="M516.68,938.21c-2.14,0-4.04-1.37-4.73-3.4c-0.43-1.26-0.33-2.61,0.26-3.81s1.61-2.09,2.88-2.51
					l81.57-27.53c0.51-0.18,1.06-0.27,1.61-0.27c2.14,0,4.03,1.37,4.72,3.4c0.88,2.6-0.53,5.44-3.13,6.32l-81.57,27.53
					C517.77,938.12,517.23,938.21,516.68,938.21z"/>
				<path class="st4" d="M598.26,902.2c1.45,0,2.81,0.93,3.3,2.38c0.62,1.83-0.36,3.8-2.19,4.42l-81.56,27.53
					c-0.37,0.13-0.75,0.18-1.11,0.18c-1.46,0-2.82-0.92-3.31-2.38c-0.62-1.82,0.36-3.8,2.19-4.42l81.56-27.53
					C597.5,902.26,597.88,902.2,598.26,902.2 M598.26,899.2L598.26,899.2c-0.72,0-1.43,0.12-2.11,0.35l-81.54,27.52
					c-1.64,0.55-2.97,1.72-3.74,3.27c-0.77,1.55-0.89,3.32-0.33,4.96c0.89,2.64,3.36,4.41,6.15,4.41c0.72,0,1.42-0.12,2.09-0.35
					l81.55-27.52c3.39-1.15,5.22-4.83,4.07-8.22C603.5,900.98,601.04,899.2,598.26,899.2L598.26,899.2z"/>
			</g>
		</g>
		<g>
			<g>
				<path class="st4" d="M468.21,824.46c-2.01,0-3.82-1.2-4.6-3.05l-36.63-86.63c-0.52-1.23-0.53-2.58-0.03-3.82
					c0.5-1.24,1.45-2.2,2.68-2.72c0.62-0.26,1.27-0.39,1.94-0.39c2.01,0,3.82,1.2,4.6,3.05l36.63,86.63
					c0.52,1.23,0.53,2.58,0.03,3.82c-0.5,1.24-1.45,2.2-2.68,2.72C469.54,824.32,468.89,824.46,468.21,824.46z"/>
				<path class="st4" d="M431.58,729.35c1.36,0,2.65,0.8,3.22,2.13l36.63,86.63c0.75,1.78-0.08,3.82-1.85,4.57
					c-0.44,0.19-0.91,0.28-1.36,0.28c-1.36,0-2.65-0.8-3.21-2.13l-36.63-86.63c-0.75-1.78,0.08-3.82,1.85-4.57
					C430.66,729.43,431.13,729.35,431.58,729.35 M431.58,726.35L431.58,726.35c-0.87,0-1.72,0.17-2.52,0.51
					c-1.6,0.68-2.84,1.93-3.49,3.54c-0.65,1.61-0.64,3.37,0.04,4.97l36.63,86.63c1.02,2.41,3.36,3.96,5.98,3.96
					c0.87,0,1.72-0.17,2.53-0.51c1.6-0.67,2.83-1.93,3.49-3.54c0.65-1.61,0.64-3.37-0.04-4.97l-36.63-86.63
					C436.54,727.9,434.2,726.35,431.58,726.35L431.58,726.35z"/>
			</g>
		</g>
		<g>
			<g>
				<path class="st4" d="M517.39,794.92c-1.91,0-3.67-1.11-4.5-2.82l-39.25-81.44c-1.19-2.48-0.15-5.47,2.33-6.66
					c0.69-0.33,1.41-0.49,2.16-0.49c1.91,0,3.67,1.11,4.5,2.83l39.24,81.44c0.58,1.2,0.66,2.56,0.22,3.81s-1.34,2.27-2.54,2.85
					C518.88,794.75,518.15,794.92,517.39,794.92z"/>
				<path class="st4" d="M478.14,705c1.3,0,2.55,0.73,3.15,1.98l39.24,81.44c0.84,1.74,0.11,3.82-1.63,4.66
					c-0.49,0.24-1.01,0.35-1.51,0.35c-1.3,0-2.55-0.73-3.15-1.97L475,710c-0.83-1.74-0.11-3.82,1.63-4.66
					C477.12,705.11,477.64,705,478.14,705 M478.14,702c-0.98,0-1.92,0.21-2.81,0.64c-3.23,1.56-4.59,5.44-3.04,8.67l39.25,81.45
					c1.07,2.23,3.37,3.67,5.85,3.67c0.99,0,1.94-0.22,2.83-0.65c1.55-0.75,2.73-2.06,3.3-3.7c0.57-1.64,0.47-3.4-0.28-4.96
					L484,705.68C482.92,703.44,480.62,702,478.14,702L478.14,702z"/>
			</g>
		</g>
		<g>
			<g>
				<path class="st4" d="M560.02,761.02c-1.94,0-3.72-1.14-4.54-2.9l-38.25-83.08c-0.56-1.21-0.61-2.56-0.15-3.81s1.38-2.25,2.6-2.8
					c0.66-0.3,1.36-0.46,2.08-0.46c1.95,0,3.73,1.14,4.54,2.91l38.25,83.08c0.56,1.21,0.61,2.56,0.15,3.81
					c-0.46,1.25-1.38,2.25-2.6,2.81C561.44,760.87,560.74,761.02,560.02,761.02z"/>
				<path class="st4" d="M521.75,669.46c1.32,0,2.59,0.76,3.17,2.03l38.25,83.08c0.81,1.75,0.04,3.82-1.71,4.63
					c-0.47,0.22-0.97,0.32-1.46,0.32c-1.32,0-2.58-0.75-3.17-2.03l-38.25-83.08c-0.81-1.75-0.04-3.82,1.71-4.63
					C520.77,669.56,521.27,669.46,521.75,669.46 M521.75,666.46L521.75,666.46c-0.94,0-1.86,0.2-2.71,0.6
					c-1.57,0.72-2.77,2.02-3.37,3.64c-0.6,1.63-0.53,3.39,0.19,4.97l38.25,83.08c1.06,2.3,3.37,3.78,5.9,3.78
					c0.95,0,1.86-0.2,2.72-0.6c1.57-0.72,2.77-2.02,3.37-3.64c0.6-1.63,0.53-3.39-0.2-4.97l-38.25-83.08
					C526.6,667.94,524.29,666.46,521.75,666.46L521.75,666.46z"/>
			</g>
		</g>
		<g>
			<g>
				<path class="st4" d="M524.59,864.79c-2.79-0.07-4.97-2.37-4.9-5.12c0.58-21.91,6.17-43.79,16.19-63.29
					c0.87-1.67,2.57-2.71,4.44-2.71c0.78,0,1.57,0.19,2.27,0.55c2.45,1.26,3.42,4.27,2.16,6.72c-9.34,18.18-14.56,38.58-15.09,58.99
					c-0.07,2.73-2.26,4.86-4.99,4.86H524.59z"/>
				<path class="st4" d="M540.33,795.17c0.54,0,1.08,0.12,1.59,0.39c1.71,0.88,2.39,2.99,1.51,4.7c-9.44,18.37-14.72,39-15.25,59.64
					c-0.05,1.9-1.6,3.4-3.49,3.4c-0.03,0-0.06,0-0.09,0c-1.93-0.05-3.45-1.65-3.4-3.58c0.57-21.68,6.11-43.35,16.02-62.65
					C537.84,795.86,539.06,795.17,540.33,795.17 M540.33,792.17L540.33,792.17c-2.44,0-4.65,1.35-5.77,3.52
					c-10.12,19.71-15.78,41.82-16.36,63.95c-0.09,3.58,2.75,6.57,6.32,6.66l0.04,0h0.04h0.09c3.54,0,6.39-2.78,6.49-6.32
					c0.53-20.19,5.69-40.37,14.92-58.35c1.63-3.18,0.37-7.1-2.81-8.74C542.37,792.42,541.35,792.17,540.33,792.17L540.33,792.17z"/>
			</g>
		</g>
	</g>
	<g>
		<g>
			<path class="st4" d="M396.16,365.69c-1.82,0-3.49-0.99-4.37-2.57c-0.65-1.17-0.8-2.51-0.43-3.79s1.21-2.34,2.38-2.99
				c34.49-19.08,62.76-49.22,79.61-84.87c0.83-1.74,2.6-2.86,4.52-2.86c0.74,0,1.46,0.16,2.13,0.48c2.48,1.17,3.55,4.15,2.38,6.64
				c-17.73,37.52-47.49,69.25-83.8,89.34C397.83,365.47,397,365.69,396.16,365.69z"/>
			<path class="st4" d="M477.86,270.1c0.5,0,1,0.11,1.48,0.34c1.75,0.82,2.49,2.9,1.67,4.65c-17.6,37.24-47.13,68.73-83.17,88.67
				c-0.54,0.3-1.11,0.44-1.69,0.44c-1.23,0-2.42-0.65-3.06-1.8c-0.93-1.69-0.32-3.81,1.36-4.75c34.77-19.24,63.26-49.61,80.23-85.54
				C475.3,270.84,476.55,270.1,477.86,270.1 M477.86,267.1L477.86,267.1c-2.5,0-4.8,1.46-5.87,3.72
				c-16.71,35.37-44.76,65.27-78.98,84.2c-1.52,0.84-2.62,2.22-3.1,3.89c-0.48,1.67-0.28,3.42,0.56,4.94
				c1.14,2.06,3.32,3.35,5.68,3.35c1.1,0,2.18-0.28,3.14-0.81c36.58-20.24,66.56-52.21,84.42-90.01c1.53-3.24,0.14-7.11-3.1-8.64
				C479.76,267.31,478.82,267.1,477.86,267.1L477.86,267.1z"/>
		</g>
	</g>
</g>
<g class="st0">
	<circle class="st6" cx="1640" cy="559.68" r="439.32"/>
	<g id="Layer-24_2_" class="st1">
		<g>
			<path class="st7" d="M1204.39,549.61C1204.39,309.03,1399.42,114,1640,114c240.58,0,435.61,195.03,435.61,435.61
				c0,240.57-195.03,435.6-435.61,435.6C1399.42,985.22,1204.39,790.19,1204.39,549.61z"/>
			<path class="st7" d="M1264.05,549.61c0-207.63,168.32-375.95,375.95-375.95c207.63,0,375.95,168.32,375.95,375.95
				S1847.63,925.56,1640,925.56C1432.37,925.56,1264.05,757.25,1264.05,549.61z"/>
			<path class="st8" d="M1409.62,433.96c0-20.64,16.73-37.37,37.37-37.37h386c20.65,0,37.38,16.73,37.38,37.37v231.29
				c0,20.65-16.73,37.38-37.38,37.38h-386c-20.64,0-37.37-16.73-37.37-37.38V433.96z"/>
			<path class="st8" d="M1423.62,408.98L1640,619.55l216.37-210.57"/>
			<path class="st8" d="M1416.66,691.9c0,0,116.95-99.17,155.94-132.23"/>
			<path class="st8" d="M1856.37,691.9c0,0-116.95-99.17-155.94-132.23"/>
			<path class="st2" d="M1749.88,410.1c0-49.74,40.32-90.06,90.05-90.06c49.74,0,90.05,40.32,90.05,90.06
				c0,49.73-40.31,90.05-90.05,90.05C1790.2,500.15,1749.88,459.83,1749.88,410.1z"/>
			<path class="st9" d="M1814.99,388.06l33.52-27.61v98.96"/>
		</g>
	</g>
	<g id="Layer-27_5_" class="st1">
	</g>
</g>
</svg>
